<?xml version="1.0" encoding="UTF-8"?>
<svg id="Layer_1" data-name="Layer 1" xmlns="http://www.w3.org/2000/svg" viewBox="0 0 364.41 500">
  <defs>
    <style>
      .cls-1 {
        fill: #4f46e5;
        stroke-width: 0px;
      }
    </style>
  </defs>
  <path class="cls-1" d="m212.59,420.68c11.86-8.22,18.9-18.1,20.85-31.15,2.68-17.97-3.23-32.97-18.04-43.09-18.06-12.34-37.06-23.31-55.68-34.83-31.29-19.36-62.67-38.56-93.87-58.04-14.21-8.86-26.85-19.69-37.78-32.43C5.34,194.68-2.54,163.74,1.03,129.59,7.27,70.09,48.18,22.08,105.91,6.08c80.4-22.28,166.2,35.03,175.92,117.55.72,6.08.91,12.23,1.34,18.34.62,8.78,6.05,14.55,13.59,14.44,7.7-.11,13.6-6.48,13.29-15.2-1.47-41.71-13.03-79.37-44.68-108.66-13.63-12.62-29.3-22.14-46.32-29.52-1.53-.66-3.03-1.4-5.97-2.77,17.62-1.07,33.27,1,48.39,6.15,52.84,18,87.06,53.45,99.56,108.39,4.12,18.11,5.16,36.5-2.6,54.23-12.88,29.45-43.06,45.83-73.99,40.16-31.16-5.7-54.15-32.3-54.92-64.81-.59-25.29-8.8-47.12-27.24-64.45-24.44-22.97-53.43-30.44-85.53-20.72-32.07,9.7-52.19,32.03-60.14,64.48-8.39,34.26,3.83,63.65,33.84,82.13,49.67,30.57,99.66,60.63,149.36,91.17,9.37,5.76,18.68,11.95,26.88,19.22,20.64,18.29,26.18,45.95,15.07,70.39-10.9,23.99-35.66,38.01-62.5,35.33-1.84-.18-3.66-.66-6.68-1.24Z"/>
  <path class="cls-1" d="m150.93,79.39c-1.48,1.16-2.4,1.88-3.33,2.6-24.08,18.69-23.92,54.41,1.25,71.6,19.93,13.62,40.97,25.63,61.53,38.34,29.05,17.97,58.22,35.74,87.13,53.94,19.48,12.26,36.55,27.3,48.86,47.04,20.98,33.64,22.59,69.94,10.36,106.24-19.11,56.76-59.31,90.46-118.94,98.31-74.5,9.81-145.46-45.78-155.46-120.42-.86-6.42-1.17-12.91-1.58-19.39-.55-8.58-6.15-14.5-13.66-14.28-7.46.22-13.28,6.55-13.04,14.95,1.93,67.16,31.96,113.2,91.65,138.77,1.26.55,2.5,1.15,3.7,2.73-4.68,0-9.42.45-14.04-.07-59.7-6.78-102.69-36.64-125.89-92.7-8.27-20-11.71-41.15-7.95-62.82,5.62-32.35,36.2-56.25,69.34-54.59,33.28,1.66,61.32,28.35,63.23,61.26,1.05,18.09,3.58,35.43,13.18,51.26,19.17,31.59,56.53,48.14,92.6,40.72,35.51-7.3,63.94-37.5,68.94-73.47,4.52-32.48-6.83-57.88-34.89-75.11-48.66-29.88-97.62-59.26-146.19-89.28-11.86-7.33-23.67-15.28-33.76-24.8-18.77-17.68-22.32-46.7-10.29-69.9,11.78-22.69,37.87-36.08,62.81-32.2,1.29.22,2.54.73,4.45,1.28Z"/>
</svg>